<svg width="24" height="24" viewBox="0 0 24 24" fill="none" xmlns="http://www.w3.org/2000/svg">
<circle cx="12" cy="12" r="12" fill="#333333"/>
<path d="M12.572 13.744H10.988C10.988 12.848 11.052 12.16 11.724 11.52C12.78 10.48 13.116 9.952 13.116 9.28C13.116 8.608 12.764 7.872 11.644 7.872C10.892 7.872 10.092 8.128 9.5 8.64V6.8C10.188 6.256 11.164 6 12.156 6C13.9 6 15.212 6.848 15.212 8.704C15.212 9.792 14.748 10.736 13.372 11.92C12.796 12.416 12.636 12.88 12.572 13.744ZM13.004 16.384C13.004 17.088 12.476 17.632 11.74 17.632C11.036 17.632 10.572 17.088 10.572 16.416C10.572 15.696 11.084 15.152 11.804 15.152C12.476 15.152 13.004 15.664 13.004 16.384Z" fill="white"/>
</svg>
