<svg width="42" height="42" viewBox="0 0 42 42" fill="none" xmlns="http://www.w3.org/2000/svg">
<rect width="42" height="42" rx="21" fill="#595959"/>
<circle cx="21" cy="21" r="21" fill="#333333"/>
<g clip-path="url(#clip0_4639_8340)">
<path d="M21 12C16.03 12 12 16.03 12 21H9L12.89 24.89L12.96 25.03L17 21H14C14 17.13 17.13 14 21 14C24.87 14 28 17.13 28 21C28 24.87 24.87 28 21 28C19.07 28 17.32 27.21 16.06 25.94L14.64 27.36C16.27 28.99 18.51 30 21 30C25.97 30 30 25.97 30 21C30 16.03 25.97 12 21 12Z" fill="#D9D9D9"/>
</g>
<defs>
<clipPath id="clip0_4639_8340">
<rect width="21" height="18" fill="white" transform="translate(9 12)"/>
</clipPath>
</defs>
</svg>
