<svg width="96" height="48" viewBox="0 0 96 48" fill="none" xmlns="http://www.w3.org/2000/svg">
<g clip-path="url(#clip0_4703_3128)">
<rect width="96" height="48" fill="#1A1A1A"/>
<path d="M96 0H0V48H96V0Z" fill="#E3120B"/>
<path d="M15.1543 20.7542V13.0742H20.017V14.6515H16.9165V16.0441H19.7777V17.5785H16.9165V19.1667H20.2237V20.7549H15.1543V20.7542Z" fill="white"/>
<path d="M25.2714 20.885C23.1066 20.885 21.3984 19.4057 21.3984 16.9362C21.3984 14.4665 23.1389 12.9324 25.3149 12.9324C26.4247 12.9324 27.1642 13.1068 27.73 13.4981V15.1301C27.1642 14.6514 26.3917 14.4668 25.6522 14.4668C24.2487 14.4668 23.2372 15.3151 23.2372 16.9036C23.2372 18.5679 24.3684 19.3513 25.7284 19.3513C26.4791 19.3513 27.1316 19.1119 27.7408 18.742V20.2975C27.1101 20.6783 26.3159 20.885 25.2714 20.885Z" fill="white"/>
<path d="M32.6152 20.8849C30.4069 20.8849 28.8945 19.3185 28.8945 16.9144C28.8945 14.5211 30.4721 12.9326 32.7349 12.9326C35.0302 12.9326 36.4555 14.5425 36.4555 16.8273C36.4555 19.3403 34.8782 20.8849 32.6152 20.8849ZM32.724 14.4773C31.5819 14.4773 30.7333 15.2603 30.7333 16.9032C30.7333 18.524 31.5489 19.3509 32.6913 19.3509C33.8446 19.3509 34.6277 18.5457 34.6277 16.9358C34.6277 15.2715 33.8446 14.4773 32.724 14.4773Z" fill="white"/>
<path d="M38.1758 20.7542V13.0742H39.8183C42.2772 16.5446 42.5924 16.9795 43.082 17.7302C43.0494 16.8707 43.0385 15.7072 43.0385 13.0742H44.7249V20.7545H43.2126C40.6884 17.0339 40.2644 16.4141 39.851 15.7613C39.8724 16.3814 39.8724 16.8381 39.8724 20.7545H38.1758V20.7542Z" fill="white"/>
<path d="M50.0566 20.8849C47.8483 20.8849 46.3359 19.3185 46.3359 16.9144C46.3359 14.5211 47.9135 12.9326 50.1763 12.9326C52.4719 12.9326 53.8969 14.5425 53.8969 16.8273C53.8969 19.3403 52.3196 20.8849 50.0566 20.8849ZM50.1654 14.4773C49.0233 14.4773 48.1747 15.2603 48.1747 16.9032C48.1747 18.524 48.9907 19.3509 50.1327 19.3509C51.286 19.3509 52.0691 18.5457 52.0691 16.9358C52.0691 15.2715 51.286 14.4773 50.1654 14.4773Z" fill="white"/>
<path d="M55.6172 20.7542V13.0742H57.5209C58.8479 15.1846 59.0985 15.5984 59.3919 16.1094C59.6965 15.5763 59.9359 15.1737 61.2742 13.0742H63.1564V20.7545H61.4159C61.4159 17.1645 61.4265 16.392 61.4594 15.5328C61.1548 16.0224 60.861 16.4793 59.3817 18.7203C57.935 16.4902 57.6412 16.0009 57.3362 15.5328C57.358 16.3923 57.358 17.2192 57.358 20.7545H55.6172V20.7542Z" fill="white"/>
<path d="M65.1699 20.7542V13.0742H66.943V20.7545H65.1699V20.7542Z" fill="white"/>
<path d="M68.5957 18.3717C69.3464 19.0136 70.5103 19.3512 71.3154 19.3512C72.0661 19.3512 72.3813 19.1009 72.3813 18.6331C72.3813 18.2849 72.1528 18.0894 71.533 17.8501L70.532 17.4693C69.1723 16.9691 68.6175 16.3051 68.6175 15.163C68.6175 13.8577 69.564 12.9326 71.5112 12.9326C72.3167 12.9326 73.2303 13.1614 73.7525 13.5096V15.2174C73.1215 14.7496 72.1317 14.4667 71.3919 14.4667C70.7061 14.4667 70.4018 14.7275 70.4018 15.1301C70.4018 15.5221 70.6303 15.6741 71.1416 15.8699L72.1426 16.2504C73.796 16.8817 74.1768 17.5665 74.1768 18.5784C74.1768 19.8296 73.317 20.8846 71.2283 20.8846C70.1624 20.8846 69.1506 20.5365 68.5957 20.1233V18.3717Z" fill="white"/>
<path d="M76.9307 20.7542V14.6733H74.8203V13.0742H80.8472V14.6733H78.7042V20.7545H76.9307V20.7542Z" fill="white"/>
<path d="M27.627 33.8105V26.1299H29.4001V33.8105H27.627Z" fill="white"/>
<path d="M31.4141 33.8105V26.1299H33.3177C34.6448 28.2406 34.8953 28.6537 35.1888 29.1648C35.4934 28.6316 35.7328 28.2291 37.071 26.1299H38.9533V33.8105H37.2128C37.2128 30.2204 37.2233 29.448 37.2563 28.5888C36.9517 29.078 36.6579 29.535 35.1785 31.7763C33.7318 29.5459 33.4381 29.0563 33.1331 28.5888C33.1549 29.4483 33.1549 30.2752 33.1549 33.8105H31.4141Z" fill="white"/>
<path d="M40.9668 33.8105V26.1299H43.2401C43.882 26.1299 44.5239 26.1843 44.9047 26.2825C46.0036 26.543 46.7105 27.2505 46.7105 28.6432C46.7105 29.7526 46.1991 30.5689 45.3073 30.96C44.785 31.1779 44.0234 31.2867 43.273 31.2867H42.7399V33.8108H40.9668V33.8105ZM43.2292 29.8396C43.6426 29.8396 44.0234 29.7961 44.2954 29.6873C44.698 29.5241 44.883 29.1868 44.883 28.7408C44.883 28.1968 44.6001 27.8809 44.0999 27.7398C43.8606 27.6748 43.4906 27.6531 43.1425 27.6531H42.7399V29.8396H43.2292Z" fill="white"/>
<path d="M46.8848 33.8105L49.7894 26.1299H51.4867L54.4131 33.8105H52.5747L51.911 32.0915H49.4198L48.7779 33.8105H46.8848ZM51.4649 30.6448C50.8883 29.0675 50.7795 28.7411 50.6598 28.3276C50.5292 28.752 50.4096 29.0675 49.8547 30.6448H51.4649Z" fill="white"/>
<path d="M59.039 33.9409C56.8742 33.9409 55.166 32.4609 55.166 29.9915C55.166 27.522 56.9065 25.9883 59.0825 25.9883C60.1923 25.9883 60.9318 26.162 61.4975 26.554V28.186C60.9318 27.7073 60.1593 27.5224 59.4198 27.5224C58.0163 27.5224 57.0047 28.371 57.0047 29.9592C57.0047 31.6235 58.1359 32.4065 59.4959 32.4065C60.2467 32.4065 60.8991 32.1675 61.5084 31.7976V33.3534C60.8777 33.7342 60.0831 33.9409 59.039 33.9409Z" fill="white"/>
<path d="M64.4564 33.8105V27.7292H62.3457V26.1299H68.3726V27.7292H66.2295V33.8105H64.4564Z" fill="white"/>
</g>
<defs>
<clipPath id="clip0_4703_3128">
<rect width="96" height="48" fill="white"/>
</clipPath>
</defs>
</svg>
